{"asset":{"version":"2.0","generator":"VECTARY"},"scene":0,"extensionsUsed":["KHR_texture_transform"],"nodes":[{"translation":[-0.00706637390260982,0.00787066555680004,0.0006289299383370866],"scale":[0.004463006855368273,0.0073320921549678755,0.003226028111416603],"rotation":[-0.7070733783433149,0.00022595406046949052,-0.006872964292905497,0.7071067450850421],"name":"Object","mesh":0},{"translation":[-0.009953254827688206,0.008287797394346968,-0.29145422355922557],"scale":[0.07692248029094043,0.08627025471955921,0.08627025471955922],"rotation":[-0.4997444110083373,-0.5002554584069324,-0.5002554584069325,0.4997444110083374],"name":"Basketball Hoop 1","children":[2]},{"translation":[0,3.166031292689553e-8,1.0000000070549298],"scale":[1,1,1],"rotation":[0,0,0,1],"name":"RootNode (model correction matrix)","children":[3]},{"translation":[0,0,0],"scale":[1,1,1],"rotation":[0.7071067966408576,0,0,0.7071067657322371],"name":"Collada visual scene group","children":[4]},{"translation":[0,0,0],"scale":[1,1,1],"rotation":[0,0,0,1],"name":"whole_low","children":[5]},{"translation":[0,0,0],"scale":[1,1,1],"rotation":[0,0,0,1],"name":"defaultMaterial","mesh":1},{"translation":[-0.009712631431549438,0.007458387511917579,0.2880665942084958],"scale":[0.07692248029094044,0.08627025471955924,0.08627025471955922],"rotation":[-0.5015784844013573,0.498416516565851,0.49841651656585106,0.5015784844013573],"name":"Basketball Hoop","children":[7]},{"translation":[1.4602888130547277e-19,3.1660312906305336e-8,1.0000000070549298],"scale":[0.9999999999999999,1,1],"rotation":[0,0,1.1175324346137702e-16,1],"name":"RootNode (model correction matrix) 1","children":[8]},{"translation":[0,0,0],"scale":[1,1,1],"rotation":[0.7071067966408576,0,0,0.7071067657322371],"name":"Collada visual scene group 1","children":[9]},{"translation":[0,0,0],"scale":[1,1,1],"rotation":[0,0,0,1],"name":"whole_low 1","children":[10]},{"translation":[0,0,0],"scale":[1,1,1],"rotation":[0,0,0,1],"name":"defaultMaterial 1","mesh":2},{"translation":[-0.04589005980374593,0.007870665556799963,0.320381686364153],"scale":[0.01023511544629141,0.01023511544629141,0.01023511544629141],"rotation":[-0.7071067811865475,0,0,0.7071067811865476],"name":"Basketball 1","children":[12]},{"translation":[0,0,0.9924470231847219],"scale":[1,1,1],"rotation":[0,0,0,1],"name":"RootNode (model correction matrix) 2","children":[13]},{"translation":[0,0,0],"scale":[1,1,1],"rotation":[0.7071067966408576,0,0,0.7071067657322371],"name":"Collada visual scene group 2","children":[14]},{"translation":[0,0,0],"scale":[1,1,1],"rotation":[0,0,0,1],"name":"g","children":[15]},{"translation":[0,0,0],"scale":[1,1,1],"rotation":[0,0,0,1],"name":"defaultMaterial 2","mesh":3},{"translation":[0.034978076959014295,0.007870665556800105,-0.32663158686490407],"scale":[0.01023511544629141,0.01023511544629141,0.01023511544629141],"rotation":[-0.7071067811865475,0,0,0.7071067811865476],"name":"Basketball","children":[17]},{"translation":[0,0,0.9924470231847219],"scale":[1,1,1],"rotation":[0,0,0,1],"name":"RootNode (model correction matrix) 3","children":[18]},{"translation":[0,0,0],"scale":[1,1,1],"rotation":[0.7071067966408576,0,0,0.7071067657322371],"name":"Collada visual scene group 3","children":[19]},{"translation":[0,0,0],"scale":[1,1,1],"rotation":[0,0,0,1],"name":"g 1","children":[20]},{"translation":[0,0,0],"scale":[1,1,1],"rotation":[0,0,0,1],"name":"defaultMaterial 3","mesh":4},{"translation":[-0.423236052035678,0.9986559760082871,-0.47283722319452803],"scale":[1,1,1],"rotation":[-0.1690378861286468,-0.8258368157063989,-0.42759058730605626,0.32647516984349056],"name":"Camera","camera":0}],"materials":[{"pbrMetallicRoughness":{"baseColorFactor":[1,1,1,1],"baseColorTexture":{"index":0,"extensions":{"KHR_texture_transform":{"offset":[0,0],"scale":[1,1]}},"texCoord":0},"metallicRoughnessTexture":{"index":2,"extensions":{"KHR_texture_transform":{"offset":[0,0],"scale":[1,1]}},"texCoord":0},"metallicFactor":0,"roughnessFactor":1},"name":"Old Cedar Wood","normalTexture":{"index":1,"scale":1,"extensions":{"KHR_texture_transform":{"offset":[0,0],"scale":[1,1]}},"texCoord":0},"emissiveFactor":[0,0,0],"alphaMode":"OPAQUE","doubleSided":false},{"pbrMetallicRoughness":{"baseColorFactor":[1,1,1,1],"baseColorTexture":{"index":3,"extensions":{"KHR_texture_transform":{"offset":[0,0],"scale":[1,1],"rotation":0}},"texCoord":0},"metallicRoughnessTexture":{"index":5,"extensions":{"KHR_texture_transform":{"offset":[0,0],"scale":[1,1],"rotation":0}},"texCoord":0},"metallicFactor":1,"roughnessFactor":1},"name":"Material 2","normalTexture":{"index":4,"scale":1,"extensions":{"KHR_texture_transform":{"offset":[0,0],"scale":[1,1],"rotation":0}},"texCoord":0},"emissiveFactor":[0,0,0],"occlusionTexture":{"index":5,"strength":1,"extensions":{"KHR_texture_transform":{"offset":[0,0],"scale":[1,1],"rotation":0}},"texCoord":0},"alphaMode":"OPAQUE","doubleSided":true},{"pbrMetallicRoughness":{"baseColorFactor":[1,1,1,1],"baseColorTexture":{"index":3,"extensions":{"KHR_texture_transform":{"offset":[0,0],"scale":[1,1],"rotation":0}},"texCoord":0},"metallicRoughnessTexture":{"index":5,"extensions":{"KHR_texture_transform":{"offset":[0,0],"scale":[1,1],"rotation":0}},"texCoord":0},"metallicFactor":1,"roughnessFactor":1},"name":"Material 1","normalTexture":{"index":4,"scale":1,"extensions":{"KHR_texture_transform":{"offset":[0,0],"scale":[1,1],"rotation":0}},"texCoord":0},"emissiveFactor":[0,0,0],"occlusionTexture":{"index":5,"strength":1,"extensions":{"KHR_texture_transform":{"offset":[0,0],"scale":[1,1],"rotation":0}},"texCoord":0},"alphaMode":"OPAQUE","doubleSided":true},{"pbrMetallicRoughness":{"baseColorFactor":[1,1,1,1],"baseColorTexture":{"index":6,"extensions":{"KHR_texture_transform":{"offset":[0,0],"scale":[1,1],"rotation":0}},"texCoord":0},"metallicRoughnessTexture":{"index":8,"extensions":{"KHR_texture_transform":{"offset":[0,0],"scale":[1,1],"rotation":0}},"texCoord":0},"metallicFactor":1,"roughnessFactor":1},"name":"Material 5","normalTexture":{"index":7,"scale":1,"extensions":{"KHR_texture_transform":{"offset":[0,0],"scale":[1,1],"rotation":0}},"texCoord":0},"emissiveFactor":[0,0,0],"occlusionTexture":{"index":8,"strength":1,"extensions":{"KHR_texture_transform":{"offset":[0,0],"scale":[1,1],"rotation":0}},"texCoord":0},"alphaMode":"OPAQUE","doubleSided":true},{"pbrMetallicRoughness":{"baseColorFactor":[1,1,1,1],"baseColorTexture":{"index":6,"extensions":{"KHR_texture_transform":{"offset":[0,0],"scale":[1,1],"rotation":0}},"texCoord":0},"metallicRoughnessTexture":{"index":8,"extensions":{"KHR_texture_transform":{"offset":[0,0],"scale":[1,1],"rotation":0}},"texCoord":0},"metallicFactor":1,"roughnessFactor":1},"name":"Material 4","normalTexture":{"index":7,"scale":1,"extensions":{"KHR_texture_transform":{"offset":[0,0],"scale":[1,1],"rotation":0}},"texCoord":0},"emissiveFactor":[0,0,0],"occlusionTexture":{"index":8,"strength":1,"extensions":{"KHR_texture_transform":{"offset":[0,0],"scale":[1,1],"rotation":0}},"texCoord":0},"alphaMode":"OPAQUE","doubleSided":true}],"textures":[{"sampler":0,"source":0},{"sampler":0,"source":1},{"sampler":0,"source":2},{"sampler":0,"source":3},{"sampler":0,"source":4},{"sampler":0,"source":5},{"sampler":0,"source":6},{"sampler":0,"source":7},{"sampler":0,"source":8}],"images":[{"uri":"127eed42-b336-4387-89b6-945bb1cc37db.jpg","mimeType":"image/jpeg"},{"uri":"shared:81fead85-75ad-4734-807b-cb6cee14f64e:a8bf2941-459d-41e3-ad80-a548d02cba83.jpg","mimeType":"image/jpeg"},{"uri":"adf02b6e-a527-43ef-93a1-780001dad326.jpg","mimeType":"image/jpeg"},{"uri":"1bd45f3c-81d3-4424-a81e-aa677cc21a2a.jpg","mimeType":"image/jpeg"},{"uri":"3895c3e8-b176-4b7b-9324-42edf12a6be1.jpg","mimeType":"image/jpeg"},{"uri":"d2bbbd4d-ef23-4237-98d6-d282bee20d8e.png","mimeType":"image/png"},{"uri":"58ae5854-89ca-44c2-befa-9cde035899ce.jpg","mimeType":"image/jpeg"},{"uri":"9c9d122d-989c-4957-a43d-647053d1e442.png","mimeType":"image/png"},{"uri":"a6f5f693-d9c9-4ea2-a80f-42efb7ad809f.png","mimeType":"image/png"}],"samplers":[{"wrapS":10497,"wrapT":10497}],"meshes":[{"primitives":[{"mode":4,"attributes":{"POSITION":1,"NORMAL":2,"TEXCOORD_0":3},"material":0,"indices":0}]},{"primitives":[{"mode":4,"attributes":{"POSITION":5,"NORMAL":6,"TEXCOORD_0":7},"material":1,"indices":4}]},{"primitives":[{"mode":4,"attributes":{"POSITION":9,"NORMAL":10,"TEXCOORD_0":11},"material":2,"indices":8}]},{"primitives":[{"mode":4,"attributes":{"POSITION":13,"NORMAL":14,"TEXCOORD_0":15},"material":3,"indices":12}]},{"primitives":[{"mode":4,"attributes":{"POSITION":17,"NORMAL":18,"TEXCOORD_0":19},"material":4,"indices":16}]}],"accessors":[{"bufferView":0,"byteOffset":0,"componentType":5125,"count":210,"type":"SCALAR"},{"bufferView":1,"byteOffset":0,"componentType":5126,"count":210,"max":[50,50,8.055769710588577e-17],"min":[-50,-50,8.055769710588577e-17],"type":"VEC3"},{"bufferView":2,"byteOffset":0,"componentType":5126,"count":210,"type":"VEC3"},{"bufferView":3,"byteOffset":0,"componentType":5126,"count":210,"type":"VEC2"},{"bufferView":4,"byteOffset":0,"componentType":5125,"count":7788,"type":"SCALAR"},{"bufferView":5,"byteOffset":0,"componentType":5126,"count":7788,"max":[0.6917300224304199,1,0.4581570029258728],"min":[-0.6917300224304199,-1,-0.4581570029258728],"type":"VEC3"},{"bufferView":6,"byteOffset":0,"componentType":5126,"count":7788,"type":"VEC3"},{"bufferView":7,"byteOffset":0,"componentType":5126,"count":7788,"type":"VEC2"},{"bufferView":8,"byteOffset":0,"componentType":5125,"count":7788,"type":"SCALAR"},{"bufferView":9,"byteOffset":0,"componentType":5126,"count":7788,"max":[0.6917300224304199,1,0.4581570029258728],"min":[-0.6917300224304199,-1,-0.4581570029258728],"type":"VEC3"},{"bufferView":10,"byteOffset":0,"componentType":5126,"count":7788,"type":"VEC3"},{"bufferView":11,"byteOffset":0,"componentType":5126,"count":7788,"type":"VEC2"},{"bufferView":12,"byteOffset":0,"componentType":5125,"count":1500,"type":"SCALAR"},{"bufferView":13,"byteOffset":0,"componentType":5126,"count":1500,"max":[0.994189977645874,0.992447018623352,1],"min":[-0.994189977645874,-0.992447018623352,-1],"type":"VEC3"},{"bufferView":14,"byteOffset":0,"componentType":5126,"count":1500,"type":"VEC3"},{"bufferView":15,"byteOffset":0,"componentType":5126,"count":1500,"type":"VEC2"},{"bufferView":16,"byteOffset":0,"componentType":5125,"count":1500,"type":"SCALAR"},{"bufferView":17,"byteOffset":0,"componentType":5126,"count":1500,"max":[0.994189977645874,0.992447018623352,1],"min":[-0.994189977645874,-0.992447018623352,-1],"type":"VEC3"},{"bufferView":18,"byteOffset":0,"componentType":5126,"count":1500,"type":"VEC3"},{"bufferView":19,"byteOffset":0,"componentType":5126,"count":1500,"type":"VEC2"}],"bufferViews":[{"buffer":0,"byteOffset":0,"byteLength":840,"target":34963},{"buffer":0,"byteOffset":840,"byteLength":2520,"target":34962},{"buffer":0,"byteOffset":3360,"byteLength":2520,"target":34962},{"buffer":0,"byteOffset":5880,"byteLength":1680,"target":34962},{"buffer":0,"byteOffset":7560,"byteLength":31152,"target":34963},{"buffer":0,"byteOffset":38712,"byteLength":93456,"target":34962},{"buffer":0,"byteOffset":132168,"byteLength":93456,"target":34962},{"buffer":0,"byteOffset":225624,"byteLength":62304,"target":34962},{"buffer":0,"byteOffset":287928,"byteLength":31152,"target":34963},{"buffer":0,"byteOffset":319080,"byteLength":93456,"target":34962},{"buffer":0,"byteOffset":412536,"byteLength":93456,"target":34962},{"buffer":0,"byteOffset":505992,"byteLength":62304,"target":34962},{"buffer":0,"byteOffset":568296,"byteLength":6000,"target":34963},{"buffer":0,"byteOffset":574296,"byteLength":18000,"target":34962},{"buffer":0,"byteOffset":592296,"byteLength":18000,"target":34962},{"buffer":0,"byteOffset":610296,"byteLength":12000,"target":34962},{"buffer":0,"byteOffset":622296,"byteLength":6000,"target":34963},{"buffer":0,"byteOffset":628296,"byteLength":18000,"target":34962},{"buffer":0,"byteOffset":646296,"byteLength":18000,"target":34962},{"buffer":0,"byteOffset":664296,"byteLength":12000,"target":34962}],"cameras":[{"name":"Camera","type":"perspective","extras":{"targetDistance":0.8004977319856684},"perspective":{"aspectRatio":1.2031007751937985,"yfov":0.6108652381980153,"zfar":50.383952210676476,"znear":0.004118352990043112}}],"scenes":[{"nodes":[0,1,6,11,16,21],"name":"bballcourt-western"}],"buffers":[{"byteLength":676296,"uri":"bballcourt-western.bin"}]}