{"asset":{"version":"2.0","generator":"VECTARY"},"scene":0,"extensionsUsed":["KHR_texture_transform"],"nodes":[{"translation":[-0.005267204129212008,-2.7755575615628914e-20,0.00019485958457806564],"scale":[0.0014075043763637656,0.0023123316029879026,0.001017396753408465],"rotation":[-0.7070733783433149,0.00022595406046948966,-0.006872964292905497,0.7071067450850421],"name":"SquarePlane - baked","mesh":0},{"translation":[-0.003262567714674782,-0.000009084150469462316,-0.09191681146366856],"scale":[0.024259144374834306,0.02720716436313355,0.02720716436313355],"rotation":[-0.4997444110083373,-0.5002554584069323,-0.5002554584069324,0.4997444110083374],"name":"Basketball Hoop 1","children":[2]},{"translation":[0,3.166031292689553e-8,1.0000000070549298],"scale":[1,1,1],"rotation":[0,0,0,1],"name":"RootNode (model correction matrix)","children":[3]},{"translation":[0,0,0],"scale":[1,1,1],"rotation":[0.7071067966408576,0,0,0.7071067657322371],"name":"Collada visual scene group","children":[4]},{"translation":[0,0,0],"scale":[1,1,1],"rotation":[0,0,0,1],"name":"whole_low","children":[5]},{"translation":[0,0,0],"scale":[1,1,1],"rotation":[0,0,0,1],"name":"defaultMaterial","mesh":1},{"translation":[-0.006831277556168892,-0.000009084150469490737,0.0908398425296491],"scale":[0.024259144374834302,0.027207164363133546,0.02720716436313355],"rotation":[-0.5015784844013573,0.49841651656585106,0.4984165165658512,0.5015784844013573],"name":"Basketball Hoop","children":[7]},{"translation":[0,3.166031292689553e-8,1.0000000070549298],"scale":[1,1,1],"rotation":[0,0,0,1],"name":"RootNode (model correction matrix) 1","children":[8]},{"translation":[0,0,0],"scale":[1,1,1],"rotation":[0.7071067966408576,0,0,0.7071067657322371],"name":"Collada visual scene group 1","children":[9]},{"translation":[0,0,0],"scale":[1,1,1],"rotation":[0,0,0,1],"name":"whole_low 1","children":[10]},{"translation":[0,0,0],"scale":[1,1,1],"rotation":[0,0,0,1],"name":"defaultMaterial 1","mesh":2},{"translation":[-0.005386235873801119,-0.00005620228869783863,0.0002087880414197761],"scale":[0.000951758108628609,0.0007982403964054501,0.0008870894522908985],"rotation":[-0.5005737202613625,0.49937289624113046,0.49483330266918807,0.5051659763413884],"name":"courtlines","mesh":3},{"translation":[-0.01831409362644513,-7.105427357601002e-18,0.1036513921626869],"scale":[0.003227861898960673,0.003227861898960673,0.003227861898960673],"rotation":[-0.7071067811865475,0,0,0.7071067811865476],"name":"Basketball 1","children":[13]},{"translation":[0,0,0.9924470231847219],"scale":[1,1,1],"rotation":[0,0,0,1],"name":"RootNode (model correction matrix) 2","children":[14]},{"translation":[0,0,0],"scale":[1,1,1],"rotation":[0.7071067966408576,0,0,0.7071067657322371],"name":"Collada visual scene group 2","children":[15]},{"translation":[0,0,0],"scale":[1,1,1],"rotation":[0,0,0,1],"name":"g","children":[16]},{"translation":[0,0,0],"scale":[1,1,1],"rotation":[0,0,0,1],"name":"defaultMaterial 2","mesh":4},{"translation":[0.007992409962208446,1.4210854715202004e-17,-0.10301372255272648],"scale":[0.003227861898960673,0.003227861898960673,0.003227861898960673],"rotation":[-0.7071067811865475,0,0,0.7071067811865476],"name":"Basketball","children":[18]},{"translation":[0,0,0.9924470231847219],"scale":[1,1,1],"rotation":[0,0,0,1],"name":"RootNode (model correction matrix) 3","children":[19]},{"translation":[0,0,0],"scale":[1,1,1],"rotation":[0.7071067966408576,0,0,0.7071067657322371],"name":"Collada visual scene group 3","children":[20]},{"translation":[0,0,0],"scale":[1,1,1],"rotation":[0,0,0,1],"name":"g 1","children":[21]},{"translation":[0,0,0],"scale":[1,1,1],"rotation":[0,0,0,1],"name":"defaultMaterial 3","mesh":5},{"translation":[-0.4147809818814874,0.2457025753689581,0.16054450172696394],"scale":[1,1,1],"rotation":[-0.22131031149039038,-0.5541462160257962,-0.15579190016043012,0.7871928614619932],"name":"Camera","camera":0}],"materials":[{"pbrMetallicRoughness":{"baseColorFactor":[1,0.9322768502645428,0.6455552724449345,1],"baseColorTexture":{"index":0,"extensions":{"KHR_texture_transform":{"offset":[2,-2],"scale":[1,1]}},"texCoord":0},"metallicRoughnessTexture":{"index":1,"extensions":{"KHR_texture_transform":{"offset":[1,-1],"scale":[1,1]}},"texCoord":0},"metallicFactor":0.04,"roughnessFactor":0.83},"name":"Old Cedar Wood","emissiveFactor":[0,0,0],"alphaMode":"OPAQUE","doubleSided":false},{"pbrMetallicRoughness":{"baseColorFactor":[1,1,1,1],"baseColorTexture":{"index":2,"extensions":{"KHR_texture_transform":{"offset":[0,0],"scale":[1,1],"rotation":0}},"texCoord":0},"metallicRoughnessTexture":{"index":4,"extensions":{"KHR_texture_transform":{"offset":[0,0],"scale":[1,1],"rotation":0}},"texCoord":0},"metallicFactor":1,"roughnessFactor":1},"name":"Material 2","normalTexture":{"index":3,"scale":1,"extensions":{"KHR_texture_transform":{"offset":[0,0],"scale":[1,1],"rotation":0}},"texCoord":0},"emissiveFactor":[0,0,0],"occlusionTexture":{"index":4,"strength":1,"extensions":{"KHR_texture_transform":{"offset":[0,0],"scale":[1,1],"rotation":0}},"texCoord":0},"alphaMode":"OPAQUE","doubleSided":true},{"pbrMetallicRoughness":{"baseColorFactor":[1,1,1,1],"baseColorTexture":{"index":2,"extensions":{"KHR_texture_transform":{"offset":[0,0],"scale":[1,1],"rotation":0}},"texCoord":0},"metallicRoughnessTexture":{"index":4,"extensions":{"KHR_texture_transform":{"offset":[0,0],"scale":[1,1],"rotation":0}},"texCoord":0},"metallicFactor":1,"roughnessFactor":1},"name":"Material 1","normalTexture":{"index":3,"scale":1,"extensions":{"KHR_texture_transform":{"offset":[0,0],"scale":[1,1],"rotation":0}},"texCoord":0},"emissiveFactor":[0,0,0],"occlusionTexture":{"index":4,"strength":1,"extensions":{"KHR_texture_transform":{"offset":[0,0],"scale":[1,1],"rotation":0}},"texCoord":0},"alphaMode":"OPAQUE","doubleSided":true},{"pbrMetallicRoughness":{"baseColorFactor":[1,1,1,1],"baseColorTexture":{"index":5,"extensions":{"KHR_texture_transform":{"offset":[0,0],"scale":[1,1],"rotation":0}},"texCoord":0},"metallicFactor":0,"roughnessFactor":1},"name":"Material 3","emissiveTexture":{"index":6,"extensions":{"KHR_texture_transform":{"offset":[0,0],"scale":[1,1],"rotation":0}},"texCoord":0},"emissiveFactor":[0,0,0],"alphaMode":"BLEND","doubleSided":true},{"pbrMetallicRoughness":{"baseColorFactor":[1,1,1,1],"baseColorTexture":{"index":7,"extensions":{"KHR_texture_transform":{"offset":[0,0],"scale":[1,1],"rotation":0}},"texCoord":0},"metallicRoughnessTexture":{"index":9,"extensions":{"KHR_texture_transform":{"offset":[0,0],"scale":[1,1],"rotation":0}},"texCoord":0},"metallicFactor":1,"roughnessFactor":1},"name":"Material 5","normalTexture":{"index":8,"scale":1,"extensions":{"KHR_texture_transform":{"offset":[0,0],"scale":[1,1],"rotation":0}},"texCoord":0},"emissiveFactor":[0,0,0],"occlusionTexture":{"index":9,"strength":1,"extensions":{"KHR_texture_transform":{"offset":[0,0],"scale":[1,1],"rotation":0}},"texCoord":0},"alphaMode":"OPAQUE","doubleSided":true},{"pbrMetallicRoughness":{"baseColorFactor":[1,1,1,1],"baseColorTexture":{"index":7,"extensions":{"KHR_texture_transform":{"offset":[0,0],"scale":[1,1],"rotation":0}},"texCoord":0},"metallicRoughnessTexture":{"index":9,"extensions":{"KHR_texture_transform":{"offset":[0,0],"scale":[1,1],"rotation":0}},"texCoord":0},"metallicFactor":1,"roughnessFactor":1},"name":"Material 4","normalTexture":{"index":8,"scale":1,"extensions":{"KHR_texture_transform":{"offset":[0,0],"scale":[1,1],"rotation":0}},"texCoord":0},"emissiveFactor":[0,0,0],"occlusionTexture":{"index":9,"strength":1,"extensions":{"KHR_texture_transform":{"offset":[0,0],"scale":[1,1],"rotation":0}},"texCoord":0},"alphaMode":"OPAQUE","doubleSided":true}],"textures":[{"sampler":0,"source":0},{"sampler":0,"source":1},{"sampler":0,"source":2},{"sampler":0,"source":3},{"sampler":0,"source":4},{"sampler":1,"source":5},{"sampler":1,"source":6},{"sampler":0,"source":7},{"sampler":0,"source":8},{"sampler":0,"source":9}],"images":[{"uri":"67ba74d5-ca3c-4c7e-bcac-631cb59b2df1.jpg","mimeType":"image/jpeg"},{"uri":"a75da4fc-1fe2-4e7d-881c-f6d1043d8f8b.jpg","mimeType":"image/jpeg"},{"uri":"16417b07-88aa-4263-b978-dacd855206df.jpg","mimeType":"image/jpeg"},{"uri":"3895c3e8-b176-4b7b-9324-42edf12a6be1.jpg","mimeType":"image/jpeg"},{"uri":"d2bbbd4d-ef23-4237-98d6-d282bee20d8e.png","mimeType":"image/png"},{"uri":"97145e4f-b1a4-4384-8479-0f3b97cca1e0.png","mimeType":"image/png"},{"uri":"22458474-4d44-4708-bf19-ffc7c62dd4ae.png","mimeType":"image/png"},{"uri":"4565ecd1-95b1-4954-bbb0-be8e63d3de2c.jpg","mimeType":"image/jpeg"},{"uri":"9c9d122d-989c-4957-a43d-647053d1e442.png","mimeType":"image/png"},{"uri":"a6f5f693-d9c9-4ea2-a80f-42efb7ad809f.png","mimeType":"image/png"}],"samplers":[{"wrapS":10497,"wrapT":10497},{"wrapS":33071,"wrapT":33071}],"meshes":[{"primitives":[{"mode":4,"attributes":{"POSITION":1,"NORMAL":2,"TEXCOORD_0":3},"material":0,"indices":0}]},{"primitives":[{"mode":4,"attributes":{"POSITION":5,"NORMAL":6,"TEXCOORD_0":7},"material":1,"indices":4}]},{"primitives":[{"mode":4,"attributes":{"POSITION":9,"NORMAL":10,"TEXCOORD_0":11},"material":2,"indices":8}]},{"primitives":[{"mode":4,"attributes":{"POSITION":13,"NORMAL":14,"TEXCOORD_0":15},"material":3,"indices":12}]},{"primitives":[{"mode":4,"attributes":{"POSITION":17,"NORMAL":18,"TEXCOORD_0":19},"material":4,"indices":16}]},{"primitives":[{"mode":4,"attributes":{"POSITION":21,"NORMAL":22,"TEXCOORD_0":23},"material":5,"indices":20}]}],"accessors":[{"bufferView":0,"byteOffset":0,"componentType":5125,"count":210,"type":"SCALAR"},{"bufferView":1,"byteOffset":0,"componentType":5126,"count":210,"max":[50,50,0],"min":[-50,-50,0],"type":"VEC3"},{"bufferView":2,"byteOffset":0,"componentType":5126,"count":210,"type":"VEC3"},{"bufferView":3,"byteOffset":0,"componentType":5126,"count":210,"type":"VEC2"},{"bufferView":4,"byteOffset":0,"componentType":5125,"count":7788,"type":"SCALAR"},{"bufferView":5,"byteOffset":0,"componentType":5126,"count":7788,"max":[0.6917300224304199,1,0.4581570029258728],"min":[-0.6917300224304199,-1,-0.4581570029258728],"type":"VEC3"},{"bufferView":6,"byteOffset":0,"componentType":5126,"count":7788,"type":"VEC3"},{"bufferView":7,"byteOffset":0,"componentType":5126,"count":7788,"type":"VEC2"},{"bufferView":8,"byteOffset":0,"componentType":5125,"count":7788,"type":"SCALAR"},{"bufferView":9,"byteOffset":0,"componentType":5126,"count":7788,"max":[0.6917300224304199,1,0.4581570029258728],"min":[-0.6917300224304199,-1,-0.4581570029258728],"type":"VEC3"},{"bufferView":10,"byteOffset":0,"componentType":5126,"count":7788,"type":"VEC3"},{"bufferView":11,"byteOffset":0,"componentType":5126,"count":7788,"type":"VEC2"},{"bufferView":12,"byteOffset":0,"componentType":5125,"count":24,"type":"SCALAR"},{"bufferView":13,"byteOffset":0,"componentType":5126,"count":24,"max":[128,96,0.20000000298023224],"min":[-128,-96,0.20000000298023224],"type":"VEC3"},{"bufferView":14,"byteOffset":0,"componentType":5126,"count":24,"type":"VEC3"},{"bufferView":15,"byteOffset":0,"componentType":5126,"count":24,"type":"VEC2"},{"bufferView":16,"byteOffset":0,"componentType":5125,"count":1500,"type":"SCALAR"},{"bufferView":17,"byteOffset":0,"componentType":5126,"count":1500,"max":[0.994189977645874,0.992447018623352,1],"min":[-0.994189977645874,-0.992447018623352,-1],"type":"VEC3"},{"bufferView":18,"byteOffset":0,"componentType":5126,"count":1500,"type":"VEC3"},{"bufferView":19,"byteOffset":0,"componentType":5126,"count":1500,"type":"VEC2"},{"bufferView":20,"byteOffset":0,"componentType":5125,"count":1500,"type":"SCALAR"},{"bufferView":21,"byteOffset":0,"componentType":5126,"count":1500,"max":[0.994189977645874,0.992447018623352,1],"min":[-0.994189977645874,-0.992447018623352,-1],"type":"VEC3"},{"bufferView":22,"byteOffset":0,"componentType":5126,"count":1500,"type":"VEC3"},{"bufferView":23,"byteOffset":0,"componentType":5126,"count":1500,"type":"VEC2"}],"bufferViews":[{"buffer":0,"byteOffset":0,"byteLength":840,"target":34963},{"buffer":0,"byteOffset":840,"byteLength":2520,"target":34962},{"buffer":0,"byteOffset":3360,"byteLength":2520,"target":34962},{"buffer":0,"byteOffset":5880,"byteLength":1680,"target":34962},{"buffer":0,"byteOffset":7560,"byteLength":31152,"target":34963},{"buffer":0,"byteOffset":38712,"byteLength":93456,"target":34962},{"buffer":0,"byteOffset":132168,"byteLength":93456,"target":34962},{"buffer":0,"byteOffset":225624,"byteLength":62304,"target":34962},{"buffer":0,"byteOffset":287928,"byteLength":31152,"target":34963},{"buffer":0,"byteOffset":319080,"byteLength":93456,"target":34962},{"buffer":0,"byteOffset":412536,"byteLength":93456,"target":34962},{"buffer":0,"byteOffset":505992,"byteLength":62304,"target":34962},{"buffer":0,"byteOffset":568296,"byteLength":96,"target":34963},{"buffer":0,"byteOffset":568392,"byteLength":288,"target":34962},{"buffer":0,"byteOffset":568680,"byteLength":288,"target":34962},{"buffer":0,"byteOffset":568968,"byteLength":192,"target":34962},{"buffer":0,"byteOffset":569160,"byteLength":6000,"target":34963},{"buffer":0,"byteOffset":575160,"byteLength":18000,"target":34962},{"buffer":0,"byteOffset":593160,"byteLength":18000,"target":34962},{"buffer":0,"byteOffset":611160,"byteLength":12000,"target":34962},{"buffer":0,"byteOffset":623160,"byteLength":6000,"target":34963},{"buffer":0,"byteOffset":629160,"byteLength":18000,"target":34962},{"buffer":0,"byteOffset":647160,"byteLength":18000,"target":34962},{"buffer":0,"byteOffset":665160,"byteLength":12000,"target":34962}],"cameras":[{"name":"Camera","type":"perspective","extras":{"targetDistance":0.4278459525357287},"perspective":{"aspectRatio":1.1181556195965419,"yfov":0.6108652381980153,"zfar":36.22176837319501,"znear":0.0026648657014594875}}],"scenes":[{"nodes":[0,1,6,11,12,17,22],"name":"Project Name"}],"buffers":[{"byteLength":677160,"uri":"ProjectName.bin"}]}